<?xml version="1.0" encoding="utf-8"?>
<!-- Generator: Adobe Illustrator 26.4.1, SVG Export Plug-In . SVG Version: 6.00 Build 0)  -->
<svg version="1.1" id="图层_1" xmlns="http://www.w3.org/2000/svg" xmlns:xlink="http://www.w3.org/1999/xlink" x="0px" y="0px"
	 viewBox="0 0 36.04 36.04" style="enable-background:new 0 0 36.04 36.04;" xml:space="preserve" fill="#4096ff">
<g id="eXHYGp.tif">
	<g>
		<path d="M18.44,23.91c-0.03-0.57-0.06-1.08-0.09-1.64c-0.13,0-0.26,0-0.39,0c-4.47,0-8.94,0-13.4,0c-0.74,0-0.94-0.2-0.94-0.93
			c0-4.99,0-9.98,0-14.97c0-0.71,0.21-0.92,0.92-0.92c7.93,0,15.86,0,23.79,0c0.7,0,0.92,0.23,0.92,0.93c0,3.51,0,7.01,0,10.52
			c0,0.14,0,0.29,0,0.38c0.62,0,1.19,0,1.8,0c0-0.07,0-0.19,0-0.31c0-3.75-0.02-7.49,0.01-11.24c0.01-1.06-0.68-1.93-1.91-1.91
			c-3.13,0.04-6.26,0.01-9.39,0.01c-0.16,0-0.32-0.01-0.47-0.05c-0.31-0.08-0.51-0.39-0.48-0.7c0.03-0.32,0.27-0.57,0.6-0.61
			c0.09-0.01,0.18-0.01,0.27-0.01c3.2,0,6.4,0,9.6,0c1.53,0,2.72,0.91,3.06,2.34c0.07,0.31,0.09,0.63,0.09,0.95
			c0.01,4.23,0,8.45,0,12.68c0,0.14,0,0.27,0,0.33c0.44,0,0.86-0.05,1.27,0.01c1.02,0.16,1.82,0.93,1.86,1.95
			c0.05,1.33,0.02,2.67-0.11,4c-0.1,1.09-0.63,2.06-1.12,3.03c-0.36,0.71-0.71,1.43-1.08,2.14c-0.28,0.55-0.42,1.13-0.4,1.75
			c0.01,0.41,0.01,0.82,0,1.23c-0.01,0.45-0.28,0.74-0.69,0.74c-0.41,0-0.68-0.28-0.68-0.73c-0.01-0.55-0.01-1.1,0-1.64
			c0.02-0.67,0.22-1.3,0.51-1.9c0.59-1.21,1.19-2.42,1.76-3.63c0.33-0.69,0.45-1.43,0.46-2.2c0.01-0.8,0.01-1.6,0-2.4
			c0-0.58-0.35-0.98-0.86-1c-0.49-0.02-0.85,0.32-0.93,0.89c-0.06,0.45-0.35,0.71-0.75,0.68c-0.38-0.03-0.62-0.31-0.62-0.76
			c-0.01-0.45,0-0.89,0-1.34c-0.01-0.56-0.35-0.96-0.84-0.99c-0.5-0.03-0.86,0.29-0.95,0.87c-0.07,0.47-0.34,0.73-0.73,0.71
			c-0.4-0.02-0.64-0.31-0.65-0.81c0-0.22,0.01-0.44-0.02-0.65c-0.06-0.49-0.43-0.8-0.92-0.79c-0.46,0.01-0.77,0.29-0.85,0.77
			c-0.02,0.1-0.02,0.21-0.04,0.31c-0.08,0.3-0.35,0.5-0.66,0.49c-0.32-0.01-0.55-0.16-0.63-0.48c-0.04-0.16-0.05-0.34-0.05-0.51
			c0-2.32,0-4.64,0-6.96c0-0.14,0-0.27-0.01-0.41c-0.04-0.47-0.4-0.81-0.85-0.82c-0.48-0.02-0.86,0.31-0.92,0.78
			c-0.02,0.12-0.01,0.25-0.01,0.38c0,3.19,0,6.37,0,9.56c0,0.1,0,0.21,0,0.31c-0.01,0.49-0.26,0.77-0.69,0.76
			c-0.42,0-0.68-0.29-0.68-0.77c-0.01-0.8,0.01-1.6-0.01-2.4c-0.03-1.02-0.76-1.95-1.76-2.23c-0.01,0.12-0.02,0.24-0.02,0.36
			c0,1.68,0.03,3.36-0.01,5.04c-0.04,1.76,0.49,3.32,1.46,4.76c0.39,0.58,0.78,1.15,1.2,1.71c0.73,0.99,1.07,2.1,1.05,3.33
			c-0.01,0.33,0.01,0.66-0.01,0.99c-0.02,0.46-0.29,0.73-0.7,0.72c-0.41,0-0.66-0.27-0.67-0.74c-0.01-0.38-0.01-0.75-0.01-1.13
			c0-0.02-0.02-0.04-0.05-0.1c-0.12,0-0.27,0-0.41,0c-5,0-10.01,0-15.01,0c-0.13,0-0.25,0-0.38,0c-0.47-0.02-0.72-0.26-0.73-0.72
			c-0.01-0.43-0.01-0.87,0-1.3c0.03-1.31,1-2.28,2.31-2.3c0.96-0.01,1.92,0,2.88,0c0.12,0,0.25,0,0.4,0c0-0.66,0-1.31,0-2
			c-0.13,0-0.26,0-0.39,0c-2.31,0-4.62,0-6.92,0c-2,0-3.27-1.28-3.27-3.28c0-5.47,0-10.94,0-16.41c0-1.56,0.97-2.78,2.45-3.08
			c0.25-0.05,0.52-0.06,0.78-0.06c3.15,0,6.31,0,9.46,0c0.07,0,0.14,0,0.21,0c0.43,0.02,0.72,0.28,0.73,0.66
			c0.01,0.37-0.28,0.67-0.69,0.71c-0.11,0.01-0.23,0-0.34,0c-3.11,0-6.22,0.03-9.32-0.01c-1.26-0.02-1.91,0.9-1.91,1.91
			c0.03,5.44,0.01,10.87,0.01,16.31c0,1.21,0.67,1.88,1.89,1.88c4.76,0,9.53,0,14.29,0C18.16,23.91,18.28,23.91,18.44,23.91z
			 M27.84,6.84c-7.62,0-15.22,0-22.83,0c0,4.69,0,9.36,0,14.04c4.46,0,8.9,0,13.36,0c0-0.15,0-0.27,0-0.39c0-1.51,0-3.01,0-4.52
			c0-0.53,0.29-0.81,0.81-0.78c0.23,0.01,0.47,0.01,0.68,0.09c0.56,0.2,1.11,0.44,1.67,0.67c0-0.07,0-0.19,0-0.31
			c0-1.48-0.01-2.97,0-4.45c0.01-1.32,1.02-2.29,2.32-2.27c1.25,0.02,2.2,1,2.21,2.31c0.01,1.68,0,3.36,0,5.03c0,0.13,0,0.26,0,0.33
			c0.62,0,1.18,0,1.77,0C27.84,13.38,27.84,10.12,27.84,6.84z M21.87,30.23c-0.32-0.47-0.6-0.87-0.86-1.28
			c-0.14-0.23-0.32-0.3-0.59-0.3c-3.52,0.01-7.03,0.01-10.55,0.01c-0.68,0-1.37-0.01-2.05,0c-0.48,0.01-0.87,0.27-0.95,0.69
			c-0.05,0.28-0.01,0.58-0.01,0.88C11.84,30.23,16.79,30.23,21.87,30.23z M19.72,27.27c-0.3-0.58-0.61-1.14-0.87-1.71
			c-0.1-0.21-0.19-0.28-0.42-0.28c-1.88,0.01-3.77,0.01-5.65,0.01c-0.1,0-0.2,0.01-0.3,0.02c0,0.67,0,1.31,0,1.97
			C14.91,27.27,17.32,27.27,19.72,27.27z"/>
		<path d="M15.82,3.12c0.01-0.39,0.31-0.68,0.71-0.67c0.37,0.01,0.65,0.32,0.64,0.7c-0.01,0.36-0.33,0.67-0.69,0.66
			C16.1,3.8,15.81,3.5,15.82,3.12z"/>
		<path d="M15.86,9.38c1.08,0,2.17-0.01,3.25,0c0.49,0,0.77,0.33,0.71,0.79c-0.05,0.36-0.32,0.57-0.77,0.57
			c-0.72,0.01-1.44,0-2.16,0c-1.39,0-2.78,0-4.18,0c-0.54,0-0.85-0.29-0.82-0.74c0.03-0.39,0.3-0.63,0.75-0.63
			C13.71,9.38,14.79,9.38,15.86,9.38z"/>
		<path d="M14.35,18.34c-0.57,0-1.14,0.01-1.71,0c-0.48-0.01-0.76-0.29-0.75-0.71c0.01-0.39,0.28-0.65,0.73-0.66
			c0.74-0.01,1.48,0,2.23,0c0.42,0,0.85-0.01,1.27,0c0.44,0.01,0.71,0.27,0.71,0.67c0.01,0.4-0.25,0.67-0.69,0.69
			C15.54,18.35,14.95,18.33,14.35,18.34C14.35,18.33,14.35,18.33,14.35,18.34z"/>
		<path d="M14.34,14.53c-0.56,0-1.12,0-1.68,0c-0.48,0-0.77-0.27-0.77-0.68c0-0.41,0.3-0.68,0.77-0.69c1.13-0.01,2.26-0.01,3.39,0
			c0.48,0,0.77,0.27,0.77,0.69c0,0.42-0.29,0.68-0.77,0.68C15.48,14.54,14.91,14.53,14.34,14.53z"/>
		<path d="M8.68,14.53c-0.27,0-0.55,0.01-0.82,0c-0.38-0.02-0.64-0.29-0.66-0.65c-0.01-0.34,0.22-0.67,0.58-0.69
			c0.6-0.03,1.21-0.04,1.81,0c0.38,0.02,0.59,0.35,0.56,0.73c-0.03,0.35-0.28,0.59-0.65,0.62c-0.02,0-0.05,0-0.07,0
			C9.18,14.53,8.93,14.53,8.68,14.53C8.68,14.53,8.68,14.53,8.68,14.53z"/>
		<path d="M8.68,10.75c-0.26,0-0.52,0.01-0.78,0c-0.42-0.03-0.7-0.31-0.69-0.7c0.01-0.39,0.28-0.66,0.71-0.67
			c0.51-0.01,1.02-0.01,1.54,0c0.42,0.01,0.68,0.26,0.7,0.64c0.02,0.4-0.23,0.69-0.65,0.72C9.23,10.76,8.95,10.75,8.68,10.75
			C8.68,10.75,8.68,10.75,8.68,10.75z"/>
		<path d="M8.69,18.32c-0.29,0-0.57,0.02-0.86,0C7.44,18.28,7.2,18,7.2,17.64c0-0.36,0.26-0.65,0.65-0.66
			c0.56-0.02,1.12-0.02,1.68,0c0.38,0.02,0.61,0.28,0.62,0.64c0.01,0.38-0.21,0.64-0.6,0.7c-0.03,0.01-0.07,0.01-0.1,0.01
			c-0.25,0-0.5,0-0.75,0C8.69,18.33,8.69,18.33,8.69,18.32z"/>
	</g>
</g>
</svg>
