<?xml version="1.0" encoding="utf-8"?>
<!-- Generator: Adobe Illustrator 26.4.1, SVG Export Plug-In . SVG Version: 6.00 Build 0)  -->
<svg version="1.1" id="图层_1" xmlns="http://www.w3.org/2000/svg" xmlns:xlink="http://www.w3.org/1999/xlink" x="0px" y="0px"
	 viewBox="0 0 36.04 36.04" style="enable-background:new 0 0 36.04 36.04;" xml:space="preserve" fill="#4096ff">
<g id="Y7YC9x.tif">
	<g>
		<path d="M29.09,20.44c-0.71,0.71-1.35,1.36-2.03,2.04c0.51,0.5,1.05,1.03,1.58,1.56c1.21,1.2,2.41,2.4,3.61,3.61
			c0.4,0.4,0.61,0.4,1.01,0.01c0.35-0.35,0.7-0.69,1.04-1.04c0.31-0.32,0.31-0.56-0.01-0.88c-0.26-0.27-0.54-0.53-0.8-0.8
			c-0.25-0.26-0.25-0.54-0.04-0.76c0.21-0.21,0.51-0.2,0.76,0.04c0.31,0.3,0.63,0.6,0.92,0.92c0.57,0.62,0.56,1.49-0.01,2.11
			c-0.42,0.45-0.86,0.89-1.31,1.31c-0.62,0.59-1.52,0.59-2.13-0.01c-1.82-1.8-3.62-3.61-5.43-5.42c-0.3-0.3-0.38-0.66-0.23-1.07
			c0.03-0.07,0.02-0.21-0.03-0.26c-0.5-0.53-1.02-1.04-1.54-1.57c-0.83,0.54-1.69,0.93-2.61,1.17c-0.06,0.02-0.12,0.12-0.14,0.19
			c-0.02,0.07-0.01,0.16-0.01,0.24c0,2.89,0,5.78,0,8.66c0,0.12,0,0.25,0,0.42c0.43,0,0.84,0,1.25,0c0.42,0,0.66,0.2,0.65,0.53
			c-0.01,0.32-0.23,0.5-0.65,0.5c-7.27,0-14.55,0-21.82,0c-0.41,0-0.64-0.18-0.65-0.49c-0.01-0.33,0.23-0.53,0.65-0.53
			c0.41,0,0.82,0,1.26,0c0-0.17,0-0.3,0-0.44c0-5.53,0-11.05,0-16.58c0-0.79,0.23-1.02,1.02-1.02c0.66,0,1.32,0,1.99,0
			c0.71,0,0.97,0.26,0.97,0.97c0,5.53,0,11.05,0,16.58c0,0.15,0,0.29,0,0.46c0.38,0,0.74,0,1.14,0c0-0.16,0-0.31,0-0.45
			c0-3.84,0-7.67,0-11.51c0-0.85,0.22-1.07,1.08-1.07c0.67,0,1.35-0.01,2.02,0c0.59,0.01,0.86,0.28,0.86,0.87
			c0.01,1.94,0,3.88,0,5.82c0,0.45-0.25,0.69-0.61,0.61c-0.35-0.08-0.42-0.35-0.42-0.65c0-1.16,0-2.33,0-3.49c0-0.69,0-1.39,0-2.1
			c-0.64,0-1.25,0-1.88,0c0,4,0,7.98,0,11.98c0.62,0,1.23,0,1.88,0c0-0.19,0-0.37,0-0.55c0-0.98,0-1.96,0-2.95c0-0.09,0-0.18,0-0.27
			c0.02-0.35,0.22-0.56,0.52-0.55c0.31,0,0.5,0.21,0.5,0.57c0.01,1.11,0,2.21,0,3.32c0,0.14,0,0.27,0,0.43c0.39,0,0.74,0,1.15,0
			c0-0.13,0-0.27,0-0.4c0-2.41,0-4.82,0-7.23c0-0.73,0.26-0.99,0.99-0.99c0.66,0,1.32,0,1.99,0c0.73,0,0.99,0.26,0.99,0.98
			c0,2.41,0,4.82,0,7.23c0,0.12,0,0.25,0,0.4c0.38,0,0.75,0,1.14,0c0.01-0.12,0.02-0.23,0.02-0.34c0-2.93,0-5.87,0.01-8.8
			c0-0.24-0.06-0.35-0.31-0.42c-3.85-1.13-6.35-4.73-6.04-8.73c0.05-0.68,0.26-1.34,0.4-2.01c0.02-0.1,0.06-0.19,0.1-0.34
			c-0.16,0-0.28,0-0.4,0c-2.71,0-5.41,0-8.12,0c-0.78,0-0.99-0.21-0.99-1c0-1.42,0-2.83,0-4.25c0-0.62,0.25-0.87,0.87-0.87
			c4.18,0,8.36,0,12.54,0c0.76,0,0.97,0.21,0.98,0.98c0,0.08,0.01,0.16,0.01,0.23c3.92-1.14,7.23-0.28,9.77,2.98
			c1.75,2.24,2.46,6.15,0.21,9.63c0.5,0.5,1.01,1.01,1.53,1.51c0.06,0.05,0.21,0.06,0.29,0.02c0.42-0.16,0.79-0.1,1.1,0.22
			c0.92,0.91,1.83,1.82,2.74,2.74c0.26,0.26,0.26,0.58,0.04,0.79c-0.23,0.22-0.51,0.2-0.78-0.08c-0.8-0.8-1.6-1.6-2.4-2.4
			C29.21,20.64,29.15,20.53,29.09,20.44z M16.8,7.62c0.04,0,0.05,0,0.06,0c0.07-0.03,0.15-0.06,0.22-0.1
			c2.35-1.02,4.57-0.77,6.61,0.78c1.17,0.89,1.89,2.08,2.23,3.51c0.08,0.34-0.06,0.6-0.35,0.67c-0.3,0.07-0.53-0.08-0.64-0.41
			c-0.03-0.09-0.05-0.18-0.07-0.26c-0.91-3.33-4.88-4.9-7.82-3.1c-0.2,0.12-0.3,0.26-0.26,0.49c0.01,0.06,0,0.11,0,0.17
			c-0.01,0.6-0.26,0.89-0.85,0.86c-0.42-0.03-0.63,0.14-0.81,0.49c-0.71,1.37-0.85,2.78-0.35,4.24c0.75,2.22,2.9,3.68,5.22,3.57
			c2.41-0.12,4.37-1.74,4.95-4.11c0.1-0.42,0.33-0.59,0.66-0.51c0.3,0.07,0.43,0.34,0.35,0.71c-0.69,3.33-4.15,5.55-7.48,4.82
			c-4.05-0.9-6.15-5.17-4.39-8.93c0.03-0.07,0.06-0.16,0.09-0.26c-0.31,0-0.57,0.02-0.83-0.01c-0.25-0.03-0.36,0.09-0.44,0.31
			c-0.51,1.33-0.64,2.7-0.37,4.1c0.68,3.59,3.93,6.14,7.6,5.98c3.62-0.16,6.65-3.03,7-6.64c0.5-5.15-4.33-9.23-9.31-7.85
			c-1.08,0.3-1.1,0.33-1.02,1.45C16.79,7.58,16.8,7.59,16.8,7.62z M3.43,9.18c4.12,0,8.2,0,12.3,0c0-1.35,0-2.68,0-4.02
			c-4.11,0-8.2,0-12.3,0C3.43,6.51,3.43,7.83,3.43,9.18z M3.44,13.92c0,5.67,0,11.32,0,16.96c0.63,0,1.24,0,1.87,0
			c0-5.66,0-11.3,0-16.96C4.68,13.92,4.07,13.92,3.44,13.92z M20.65,21.62c-0.63,0-1.24,0-1.87,0c0,3.08,0,6.16,0,9.26
			c0.63,0,1.24,0,1.87,0C20.65,27.79,20.65,24.71,20.65,21.62z M13.66,23.31c0,2.54,0,5.06,0,7.57c0.63,0,1.25,0,1.87,0
			c0-2.53,0-5.04,0-7.57C14.9,23.31,14.29,23.31,13.66,23.31z M26.12,18.81c-0.26,0.26-0.53,0.53-0.78,0.77
			c0.5,0.5,1.01,1.01,1.53,1.52c0.25-0.25,0.52-0.52,0.77-0.77C27.14,19.82,26.63,19.31,26.12,18.81z"/>
		<path d="M19.78,9.24c2.21,0.01,4,1.8,3.99,4.02c0,2.2-1.82,4.01-4.02,4c-2.2-0.01-4-1.83-4-4.03
			C15.76,11.02,17.57,9.23,19.78,9.24z M17.36,11.55c-0.73,0.87-0.75,2.3-0.08,3.33c0.73,1.11,2.13,1.6,3.39,1.2
			c1.06-0.34,1.99-1.42,1.97-2.32c-0.89,0-1.77-0.01-2.66,0c-0.3,0-0.52-0.09-0.73-0.3C18.64,12.82,18.01,12.2,17.36,11.55z
			 M22.71,12.73c-0.27-1.13-0.88-1.89-1.9-2.27c-0.95-0.35-1.86-0.24-2.73,0.34c0.62,0.63,1.21,1.23,1.81,1.82
			c0.06,0.06,0.16,0.11,0.24,0.11C20.96,12.73,21.81,12.73,22.71,12.73z"/>
		<path d="M11.21,7.68c-0.88,0-1.76,0-2.64,0c-0.41,0-0.63-0.19-0.63-0.51c0-0.32,0.22-0.52,0.63-0.52c1.77,0,3.54,0,5.31,0
			c0.4,0,0.64,0.2,0.64,0.51c0,0.31-0.24,0.51-0.63,0.52C12.99,7.68,12.1,7.68,11.21,7.68z"/>
		<path d="M6.01,7.68c-0.27,0-0.55,0.01-0.82,0c-0.32-0.01-0.53-0.21-0.54-0.5c-0.01-0.29,0.2-0.52,0.51-0.52
			c0.57-0.01,1.14-0.01,1.71,0c0.31,0.01,0.52,0.25,0.51,0.53C7.37,7.46,7.16,7.66,6.86,7.68c-0.02,0-0.05,0-0.07,0
			C6.53,7.68,6.27,7.68,6.01,7.68z"/>
	</g>
</g>
</svg>
