<?xml version="1.0" encoding="utf-8"?>
<!-- Generator: Adobe Illustrator 26.4.1, SVG Export Plug-In . SVG Version: 6.00 Build 0)  -->
<svg version="1.1" id="图层_1" xmlns="http://www.w3.org/2000/svg" xmlns:xlink="http://www.w3.org/1999/xlink" x="0px" y="0px"
	 viewBox="0 0 36.04 36.04" style="enable-background:new 0 0 36.04 36.04;" xml:space="preserve" fill="#4096ff">
<g id="LheBq5.tif">
	<g>
		<path d="M31.1,25.5c-0.8,1.33-2.39,1.19-3.05,0c-0.59,0.24-1.19,0.48-1.68,0.68c0.01,1.46,0.03,2.85,0.03,4.24
			c0,0.36-0.2,0.56-0.51,0.56c-0.3,0-0.51-0.21-0.51-0.56c-0.01-0.92-0.02-1.85,0-2.77c0.03-1.37-0.53-2.42-1.67-3.18
			c-0.65-0.43-1.28-0.88-1.96-1.34c-0.26,0.34-0.51,0.68-0.76,1.01c-0.41,0.55-0.74,0.65-1.4,0.45c-0.35-0.1-0.69-0.21-1.08-0.33
			c0,0.17,0,0.29,0,0.42c0,1.92,0,3.84,0,5.75c0,0.11,0.01,0.23-0.01,0.34c-0.04,0.26-0.2,0.41-0.46,0.42
			c-0.26,0.02-0.45-0.1-0.52-0.35c-0.04-0.13-0.04-0.27-0.04-0.41c0-1.92,0-3.84,0-5.75c0-0.12,0-0.25,0-0.41
			c-0.41,0.12-0.79,0.24-1.17,0.35c-0.54,0.16-0.89,0.04-1.23-0.4c-0.27-0.35-0.53-0.71-0.83-1.1c-0.87,0.63-1.76,1.2-2.56,1.87
			c-0.75,0.63-1.05,1.53-1.06,2.51c-0.01,0.98,0,1.96-0.01,2.95c0,0.4-0.31,0.67-0.64,0.53c-0.16-0.07-0.36-0.29-0.36-0.43
			c0.01-1.36,0.05-2.71,0.1-4.07c0.01-0.21,0.11-0.42,0.18-0.7c-0.56-0.2-1.12-0.41-1.68-0.6c-0.04-0.01-0.15,0.08-0.19,0.14
			c-0.81,1.19-2.26,1.2-3.05,0c-0.1-0.15-0.18-0.17-0.33-0.11c-0.5,0.2-1,0.37-1.5,0.57c-0.35,0.14-0.63,0.07-0.76-0.21
			c-0.13-0.28-0.02-0.57,0.32-0.72c0.59-0.25,1.19-0.46,1.79-0.68c0.26-0.1,0.36-0.48,0.14-0.65C4,22.98,3.6,22.3,3.42,21.48
			c-0.23-0.03-0.45-0.04-0.65-0.09c-1.04-0.28-1.51-1.44-0.99-2.38c0.1-0.17,0.14-0.4,0.13-0.6c-0.02-0.39-0.1-0.77-0.16-1.15
			C1.49,15.63,2.42,14.17,4,13.69c0.42-0.13,0.83-0.33,1.24-0.49c3.04-1.2,6.23,1.07,6.09,4.33c-0.01,0.15,0,0.3-0.02,0.44
			c-0.06,0.43-0.02,0.81,0.18,1.24c0.49,1.01-0.29,2.18-1.41,2.23c-0.09,0-0.18,0.01-0.25,0.01c-0.16,0.38-0.28,0.77-0.49,1.1
			c-0.22,0.34-0.52,0.63-0.81,0.92c-0.14,0.13-0.32,0.24-0.23,0.43c0.06,0.12,0.22,0.22,0.36,0.28c0.57,0.23,1.15,0.43,1.77,0.65
			c0.82-1.1,2.08-1.69,3.17-2.51c0.08-0.06,0.18-0.16,0.19-0.25c0.06-0.34,0.24-0.58,0.5-0.79c0.31-0.24,0.6-0.49,0.9-0.74
			c0.06-0.05,0.1-0.14,0.13-0.22c0.02-0.06,0-0.14,0.01-0.2c0.05-0.43-0.06-0.75-0.43-1.05c-0.7-0.58-1.13-1.36-1.34-2.26
			c-0.05-0.22-0.13-0.33-0.38-0.37c-1.32-0.19-1.95-1.64-1.21-2.74c0.12-0.18,0.12-0.31,0.06-0.5c-0.63-1.95-0.46-3.82,0.51-5.62
			c0.2-0.37,0.59-0.46,0.84-0.21c0.24,0.23,0.18,0.49,0.04,0.75c-0.53,0.96-0.78,2-0.72,3.09c0.03,0.47,0.14,0.94,0.22,1.42
			c0.05,0.28,0.19,0.4,0.49,0.27c0.02-0.2,0.02-0.42,0.06-0.63c0.27-1.48,1.5-2.52,3.01-2.54c0.78-0.01,1.55,0.01,2.33-0.01
			c0.17,0,0.36-0.07,0.49-0.17c0.68-0.52,0.86-0.53,1.56-0.01c0.02,0.02,0.06,0.02,0.18,0.07c-0.06-0.42-0.08-0.79-0.18-1.14
			c-0.46-1.63-1.97-2.65-3.79-2.61c-0.76,0.01-1.46,0.22-2.11,0.61c-0.05,0.03-0.1,0.06-0.15,0.09c-0.28,0.15-0.57,0.09-0.72-0.15
			C13.94,6.18,14,5.9,14.27,5.71c2.19-1.48,5.41-1.02,6.9,1.1C21.3,7,21.45,7.1,21.68,7.15c1.7,0.36,2.9,2.05,2.68,3.77
			c-0.11,0.83-0.23,1.65-0.34,2.48c-0.02,0.12,0.02,0.27,0.08,0.38c0.66,1.16,0.04,2.5-1.28,2.7c-0.22,0.03-0.3,0.12-0.34,0.33
			c-0.23,1-0.75,1.83-1.54,2.49c-0.36,0.3-0.34,1.09,0.03,1.38c0.32,0.25,0.64,0.52,0.94,0.8c0.11,0.1,0.25,0.26,0.26,0.39
			c0.01,0.37,0.27,0.5,0.51,0.66c0.44,0.3,0.88,0.62,1.33,0.91c0.75,0.48,1.41,1.04,1.85,1.86c0.65-0.26,1.28-0.51,1.91-0.77
			c0.2-0.08,0.2-0.47,0.02-0.63c-0.19-0.16-0.38-0.33-0.58-0.48c-0.09-0.06-0.23-0.09-0.34-0.09c-1.69,0.01-3.02-1.13-3.17-2.82
			c-0.04-0.46,0.11-0.94,0.21-1.4c0.06-0.26,0.22-0.5,0.31-0.76c0.24-0.67,0.51-1.34,0.7-2.03c0.6-2.2,2.56-3.71,4.8-3.65
			c2.3,0.06,4.14,1.62,4.67,3.85c0.21,0.88,0.62,1.71,0.95,2.55c0.47,1.2,0.21,2.47-0.7,3.37c-0.61,0.6-1.34,0.9-2.2,0.86
			c-0.22-0.01-0.38,0.05-0.54,0.21c-0.14,0.15-0.34,0.24-0.47,0.39c-0.09,0.1-0.17,0.26-0.17,0.39c0,0.09,0.14,0.21,0.24,0.26
			c0.48,0.21,0.98,0.39,1.46,0.6c1.39,0.61,2.11,1.69,2.19,3.19c0.02,0.28,0.01,0.57,0,0.86c-0.01,0.35-0.22,0.56-0.52,0.56
			c-0.31,0-0.49-0.21-0.51-0.56c-0.01-0.39,0.01-0.78-0.04-1.16c-0.12-0.88-0.6-1.52-1.41-1.89C32.16,25.91,31.63,25.72,31.1,25.5z
			 M20.03,10.24c-0.38,0.61-0.98,0.53-1.56,0.52c-0.66-0.01-1.32-0.01-1.99,0c-1.13,0.01-2.01,0.87-2.03,1.99
			c-0.02,1.06-0.02,2.12,0.01,3.18c0.05,1.79,1.54,3.27,3.38,3.37c1.78,0.1,3.47-1.23,3.67-3c0.11-1.02,0.04-2.05,0.08-3.08
			C21.63,11.97,21.13,11,20.03,10.24z M26.45,22.25c-0.05-0.24-0.13-0.45-0.13-0.66c-0.01-1.15-0.03-2.3,0-3.45
			c0.02-0.63,0.29-1.19,0.65-1.71c0.4-0.57,0.79-0.63,1.35-0.2c0.53,0.41,1.13,0.64,1.8,0.65c0.64,0.01,1.28,0.03,1.92,0.06
			c0.59,0.02,0.93,0.37,0.94,0.95c0.01,0.38,0,0.75,0,1.13c0,0.4-0.2,0.64-0.51,0.64c-0.31,0-0.51-0.24-0.51-0.64
			c0-0.35,0-0.7,0-1.05c-1.47-0.07-2.95,0.12-4.23-0.91c-0.14,0.4-0.33,0.73-0.35,1.07c-0.05,1.09-0.06,2.19-0.03,3.28
			c0.02,0.62,0.36,1.12,0.85,1.51c1.43,1.12,3.42,0.3,3.75-1.55c0.07-0.4,0.28-0.58,0.61-0.52c0.3,0.05,0.46,0.31,0.4,0.68
			c-0.04,0.24-0.1,0.48-0.15,0.73c0.78-0.06,1.48-0.68,1.69-1.48c0.13-0.51,0.04-0.99-0.16-1.47c-0.32-0.8-0.73-1.59-0.91-2.42
			c-0.41-1.85-1.93-3.18-3.8-3.18c-1.86,0-3.44,1.35-3.77,3.2c-0.05,0.3-0.15,0.6-0.26,0.88c-0.24,0.61-0.54,1.21-0.76,1.83
			C24.38,20.79,25.18,22.08,26.45,22.25z M10.25,18.17c0-0.5,0.08-1.02-0.01-1.51c-0.42-2.15-2.62-3.3-4.66-2.48
			c-0.49,0.19-0.98,0.37-1.47,0.56c-0.73,0.28-1.23,0.81-1.32,1.57c-0.07,0.62,0.05,1.26,0.09,1.86c0.38,0.07,0.54,0.03,0.6-0.33
			c0.06-0.36,0.23-0.72,0.42-1.04c0.32-0.57,0.72-0.64,1.25-0.25c0.6,0.44,1.26,0.75,2,0.82c0.57,0.05,1.14,0.03,1.71,0.04
			c0.39,0,0.72,0.13,0.86,0.5C9.81,18.19,9.96,18.26,10.25,18.17z M8.76,18.49c-0.74-0.06-1.46-0.03-2.14-0.18
			c-0.68-0.15-1.31-0.47-2.02-0.73c-0.05,0.25-0.17,0.55-0.18,0.86c-0.03,0.87-0.04,1.73,0,2.6c0.06,1.17,0.98,2.04,2.11,2.07
			c1.14,0.03,2.13-0.77,2.22-1.89C8.82,20.31,8.76,19.39,8.76,18.49z M21.93,8.33c0.04,0.4,0.14,0.78,0.09,1.14
			c-0.11,0.77,0,1.45,0.36,2.15c0.2,0.39,0.2,0.87,0.3,1.33c0.11,0,0.23,0.01,0.38,0.02c0.11-0.82,0.25-1.6,0.3-2.4
			C23.41,9.61,22.79,8.68,21.93,8.33z M21.17,22.17c-0.24-0.2-0.44-0.39-0.66-0.55c-0.07-0.05-0.22-0.09-0.29-0.05
			c-0.52,0.24-1.03,0.49-1.54,0.75c-0.31,0.16-0.13,0.45-0.15,0.68c-0.01,0.08,0.14,0.21,0.24,0.25c0.36,0.13,0.74,0.24,1.11,0.34
			c0.08,0.02,0.23-0.01,0.28-0.07C20.5,23.08,20.82,22.64,21.17,22.17z M14.87,22.2c0.33,0.44,0.65,0.88,0.99,1.31
			c0.05,0.06,0.2,0.1,0.28,0.08c0.38-0.1,0.77-0.22,1.14-0.35c0.08-0.03,0.18-0.11,0.2-0.18c0.11-0.46,0.01-0.67-0.42-0.88
			c-0.19-0.1-0.39-0.19-0.58-0.29c-0.86-0.42-0.86-0.42-1.57,0.24C14.9,22.14,14.9,22.15,14.87,22.2z M16.4,20.05
			c-0.1,0.61-0.1,0.61,0.37,0.84c0.41,0.2,0.82,0.54,1.23,0.55c0.41,0,0.83-0.34,1.24-0.54c0.51-0.24,0.51-0.25,0.39-0.85
			C18.56,20.43,17.49,20.44,16.4,20.05z M5.81,24.07c-0.05,0.38-0.03,0.74,0.33,0.97c0.26,0.17,0.54,0.16,0.8-0.02
			c0.28-0.19,0.37-0.51,0.27-0.89c-0.23,0-0.45,0.01-0.68,0C6.3,24.12,6.06,24.09,5.81,24.07z M28.95,24.41
			c-0.04,0.37-0.07,0.75,0.33,0.92c0.19,0.08,0.47,0.04,0.66-0.05c0.27-0.13,0.32-0.49,0.21-0.87
			C29.76,24.41,29.37,24.41,28.95,24.41z M13.41,14c-0.48,0.06-0.75,0.36-0.73,0.77c0.02,0.4,0.32,0.66,0.73,0.64
			C13.41,14.94,13.41,14.48,13.41,14z M22.63,15.44c0.47-0.07,0.73-0.36,0.71-0.75c-0.02-0.39-0.28-0.65-0.71-0.69
			C22.63,14.47,22.63,14.95,22.63,15.44z M9.82,19.24c0,0.4,0,0.78,0,1.16c0.47,0.04,0.76-0.18,0.77-0.56
			C10.6,19.46,10.32,19.23,9.82,19.24z M3.36,19.23c-0.29-0.03-0.55,0.02-0.65,0.28c-0.07,0.19-0.07,0.45,0.01,0.64
			c0.1,0.25,0.36,0.32,0.65,0.25C3.36,20.01,3.36,19.63,3.36,19.23z"/>
		<path d="M0.49,29.02c-0.04-0.69,0.02-1.49,0.38-2.24c0.15-0.32,0.42-0.44,0.69-0.32c0.27,0.12,0.4,0.37,0.28,0.62
			c-0.43,0.9-0.31,1.85-0.33,2.79c0,0.08,0,0.16,0,0.24c-0.02,0.34-0.22,0.55-0.53,0.54c-0.29-0.01-0.49-0.21-0.5-0.54
			C0.48,29.79,0.49,29.47,0.49,29.02z"/>
		<path d="M12.54,28.81c0-0.43,0-0.86,0-1.3c0-0.35,0.2-0.57,0.49-0.58c0.31-0.01,0.53,0.22,0.54,0.58c0.01,0.85,0.01,1.71,0,2.56
			c0,0.37-0.21,0.59-0.53,0.58c-0.3-0.01-0.49-0.21-0.49-0.57C12.53,29.66,12.54,29.23,12.54,28.81z"/>
		<path d="M22.47,28.77c0-0.42-0.01-0.84,0-1.26c0.01-0.35,0.2-0.57,0.5-0.57c0.29-0.01,0.52,0.21,0.52,0.55
			c0.01,0.88,0.01,1.75,0,2.63c0,0.34-0.23,0.55-0.54,0.53c-0.29-0.01-0.48-0.21-0.48-0.55C22.46,29.66,22.47,29.21,22.47,28.77z"/>
	</g>
</g>
</svg>
