<?xml version="1.0" encoding="utf-8"?>
<!-- Generator: Adobe Illustrator 26.4.1, SVG Export Plug-In . SVG Version: 6.00 Build 0)  -->
<svg version="1.1" id="图层_1" xmlns="http://www.w3.org/2000/svg" xmlns:xlink="http://www.w3.org/1999/xlink" x="0px" y="0px"
	 viewBox="0 0 36.04 36.04" style="enable-background:new 0 0 36.04 36.04;" xml:space="preserve" fill="#4096ff">
<g id="NBdaOU.tif">
	<g>
		<path d="M15.59,9.21c-0.8,0-1.56-0.01-2.33,0c-0.44,0-0.82-0.11-1.03-0.53c-0.22-0.42-0.09-0.79,0.17-1.15
			c1.57-2.17,3.12-4.35,4.69-6.52c0.55-0.77,1.26-0.77,1.8-0.01c1.57,2.18,3.13,4.37,4.71,6.55c0.25,0.35,0.37,0.71,0.16,1.12
			c-0.21,0.42-0.58,0.55-1.03,0.54c-0.78-0.01-1.55,0-2.37,0c0,0.49,0,0.96,0,1.43c0,0.18,0.01,0.37-0.01,0.55
			c-0.03,0.3-0.25,0.5-0.53,0.48c-0.29-0.02-0.49-0.18-0.49-0.47c-0.02-0.85-0.02-1.69,0-2.54c0.01-0.32,0.25-0.47,0.57-0.47
			c0.81,0,1.63,0,2.44,0c0.11,0,0.22,0,0.43,0c-1.62-2.25-3.19-4.45-4.78-6.67c-1.59,2.22-3.16,4.41-4.78,6.67c0.36,0,0.64,0,0.92,0
			c0.63,0,1.26,0,1.89,0c0.46,0,0.63,0.18,0.64,0.65c0,0.06,0,0.11,0,0.17c0,8.58,0,17.17,0,25.75c0,0.09,0,0.18,0,0.27
			c-0.01,0.35-0.21,0.57-0.51,0.57c-0.3,0-0.51-0.22-0.52-0.56c-0.01-0.48,0-0.96,0-1.44c0-2.64-0.47-5.19-1.43-7.64
			c-1.48-3.8-3.88-6.9-7.15-9.33c-0.09-0.07-0.19-0.13-0.31-0.21c-0.38,0.59-0.74,1.17-1.11,1.74c-0.09,0.14-0.18,0.29-0.28,0.43
			C4.89,19.19,4,19.13,3.7,18.44c-0.45-1.03-0.85-2.07-1.26-3.11c-0.13-0.32,0.01-0.6,0.3-0.7c0.27-0.1,0.53,0.02,0.66,0.33
			c0.34,0.83,0.68,1.67,1.02,2.51c0.05,0.11,0.1,0.23,0.17,0.4c0.3-0.46,0.56-0.88,0.83-1.3c0.21-0.33,0.42-0.66,0.63-0.98
			c0.32-0.5,0.53-0.54,1.03-0.2c4,2.78,6.8,6.47,8.4,11.07c0.03,0.08,0.06,0.17,0.13,0.25c0-0.09,0.01-0.19,0.01-0.28
			c0-1.87,0-3.73-0.01-5.6c0-0.18-0.06-0.38-0.16-0.54c-1.82-2.85-4.13-5.24-6.92-7.15c-0.56-0.39-0.59-0.54-0.23-1.11
			c0.45-0.71,0.9-1.42,1.41-2.21c-2.76,0.15-5.44,0.3-8.15,0.45c0.03,0.11,0.05,0.2,0.09,0.29c0.28,0.69,0.55,1.38,0.83,2.07
			c0.17,0.42,0.08,0.73-0.23,0.84c-0.31,0.12-0.56-0.03-0.72-0.44c-0.31-0.77-0.63-1.55-0.94-2.32c-0.32-0.8,0.08-1.42,0.95-1.47
			c2.71-0.15,5.42-0.3,8.13-0.45c0.42-0.02,0.77,0.09,1,0.46c0.23,0.38,0.17,0.74-0.06,1.1c-0.43,0.67-0.86,1.35-1.31,2.06
			c2.44,1.71,4.53,3.78,6.31,6.25C15.59,15.48,15.59,12.36,15.59,9.21z"/>
		<path d="M31.47,17.89c1.03-2.58,2.04-5.07,3.05-7.6c-2.73-0.15-5.41-0.3-8.18-0.46c0.13,0.21,0.23,0.36,0.32,0.51
			c0.36,0.57,0.73,1.14,1.09,1.71c0.33,0.52,0.29,0.7-0.21,1.04c-2.83,1.92-5.17,4.33-7.01,7.21c-0.1,0.16-0.16,0.38-0.17,0.57
			c-0.01,1.95-0.01,3.89-0.01,5.94c0.07-0.16,0.11-0.23,0.13-0.3c0.45-1.34,1.02-2.62,1.73-3.84c0.1-0.17,0.33-0.34,0.52-0.36
			c0.41-0.05,0.6,0.4,0.4,0.82c-0.4,0.81-0.84,1.6-1.19,2.43c-1.09,2.6-1.61,5.31-1.6,8.12c0,0.45,0,0.89,0,1.34
			c-0.01,0.36-0.22,0.6-0.53,0.59c-0.3-0.01-0.49-0.23-0.5-0.58c-0.01-0.26,0-0.53,0-0.79c0-6.87,0-13.74,0-20.61
			c0-0.55,0.17-0.8,0.53-0.79c0.35,0.01,0.5,0.25,0.5,0.79c0,1.65,0,3.3,0,5.06c1.81-2.51,3.91-4.58,6.38-6.31
			c-0.44-0.7-0.88-1.38-1.31-2.06c-0.28-0.45-0.27-0.92,0.09-1.22c0.2-0.17,0.51-0.3,0.76-0.29c2.02,0.08,4.05,0.21,6.07,0.32
			c0.7,0.04,1.39,0.08,2.09,0.11c0.96,0.05,1.34,0.65,0.98,1.54c-0.99,2.47-1.99,4.94-2.97,7.41c-0.17,0.42-0.41,0.75-0.89,0.79
			c-0.49,0.04-0.78-0.23-1.02-0.62c-0.41-0.66-0.83-1.31-1.26-1.98c-1.25,0.88-2.38,1.85-3.37,2.96c-0.55,0.61-1.05,1.27-1.57,1.91
			c-0.21,0.25-0.5,0.29-0.73,0.12c-0.23-0.17-0.26-0.46-0.09-0.74c0.02-0.04,0.05-0.07,0.08-0.11c1.21-1.64,2.61-3.09,4.22-4.34
			c0.4-0.31,0.81-0.6,1.22-0.89c0.38-0.26,0.63-0.2,0.89,0.19C30.44,16.27,30.94,17.05,31.47,17.89z"/>
	</g>
</g>
</svg>
